ffmpeg version 3.4.2-tessus Copyright (c) 2000-2018 the FFmpeg developers
  built with Apple LLVM version 9.0.0 (clang-900.0.39.2)
  configuration: --cc=/usr/bin/clang --prefix=/opt/ffmpeg --extra-version=tessus --enable-avisynth --enable-fontconfig --enable-gpl --enable-libass --enable-libbluray --enable-libfreetype --enable-libgsm --enable-libmodplug --enable-libmp3lame --enable-libopencore-amrnb --enable-libopencore-amrwb --enable-libopus --enable-libsnappy --enable-libsoxr --enable-libspeex --enable-libtheora --enable-libvidstab --enable-libvo-amrwbenc --enable-libvorbis --enable-libvpx --enable-libwavpack --enable-libx264 --enable-libx265 --enable-libxavs --enable-libxvid --enable-libzmq --enable-libzvbi --enable-version3 --pkg-config-flags=--static --disable-ffplay
  libavutil      55. 78.100 / 55. 78.100
  libavcodec     57.107.100 / 57.107.100
  libavformat    57. 83.100 / 57. 83.100
  libavdevice    57. 10.100 / 57. 10.100
  libavfilter     6.107.100 /  6.107.100
  libswscale      4.  8.100 /  4.  8.100
  libswresample   2.  9.100 /  2.  9.100
  libpostproc    54.  7.100 / 54.  7.100
Input #0, mov,mp4,m4a,3gp,3g2,mj2, from '/Users/rayct/Documents/Development/Projects/ellatronix.com/ellatronix.com.comingsoon/mp4/Nebula - 1.mp4':
  Metadata:
    major_brand     : mp42
    minor_version   : 0
    compatible_brands: mp42mp41isomavc1
    creation_time   : 2019-06-29T16:20:38.000000Z
  Duration: 00:00:30.04, start: 0.000000, bitrate: 5810 kb/s
    Stream #0:0(und): Video: h264 (High) (avc1 / 0x31637661), yuv420p(tv, bt709), 1920x1080, 5669 kb/s, 29.97 fps, 29.97 tbr, 30k tbn, 60k tbc (default)
    Metadata:
      creation_time   : 2019-06-29T16:20:38.000000Z
      handler_name    : L-SMASH Video Handler
      encoder         : AVC Coding
    Stream #0:1(und): Audio: aac (LC) (mp4a / 0x6134706D), 48000 Hz, stereo, fltp, 137 kb/s (default)
    Metadata:
      creation_time   : 2019-06-29T16:20:38.000000Z
      handler_name    : L-SMASH Audio Handler
Output #0, mp4, to '/Users/rayct/Documents/Development/Projects/ellatronix.com/ellatronix.com.comingsoon/mp4/Nebula - 1.conv.mp4':
  Metadata:
    major_brand     : mp42
    minor_version   : 0
    compatible_brands: mp42mp41isomavc1
    media_type      : 9
    encoder         : Lavf57.83.100
    Stream #0:0(und): Video: h264 (High) (avc1 / 0x31637661), yuv420p(tv, bt709), 1920x1080, q=2-31, 5669 kb/s, 29.97 fps, 29.97 tbr, 30k tbn, 30k tbc (default)
    Metadata:
      creation_time   : 2019-06-29T16:20:38.000000Z
      encoder         : AVC Coding
      handler_name    : L-SMASH Video Handler
      title           : Video Track
Stream mapping:
  Stream #0:0 -> #0:0 (copy)
Press [q] to stop, [?] for help
frame=  900 fps=0.0 q=-1.0 Lsize=   20795kB time=00:00:29.92 bitrate=5691.6kbits/s speed= 280x    
video:20783kB audio:0kB subtitle:0kB other streams:0kB global headers:0kB muxing overhead: 0.056283%
